ffmpeg version 5.0.1-static https://johnvansickle.com/ffmpeg/  Copyright (c) 2000-2022 the FFmpeg developers
  built with gcc 8 (Debian 8.3.0-6)
  configuration: --enable-gpl --enable-version3 --enable-static --disable-debug --disable-ffplay --disable-indev=sndio --disable-outdev=sndio --cc=gcc --enable-fontconfig --enable-frei0r --enable-gnutls --enable-gmp --enable-libgme --enable-gray --enable-libfribidi --enable-libass --enable-libfreetype --enable-libmp3lame --enable-libopencore-amrnb --enable-libopencore-amrwb --enable-libopenjpeg --enable-librubberband --enable-libsoxr --enable-libspeex --enable-libsrt --enable-libvorbis --enable-libopus --enable-libtheora --enable-libvidstab --enable-libvo-amrwbenc --enable-libvpx --enable-libwebp --enable-libx264 --enable-libx265 --enable-libxml2 --enable-libxvid --enable-libzimg
  libavutil      57. 17.100 / 57. 17.100
  libavcodec     59. 18.100 / 59. 18.100
  libavformat    59. 16.100 / 59. 16.100
  libavdevice    59.  4.100 / 59.  4.100
  libavfilter     8. 24.100 /  8. 24.100
  libswscale      6.  4.100 /  6.  4.100
  libswresample   4.  3.100 /  4.  3.100
  libpostproc    56.  3.100 / 56.  3.100
Input #0, image2, from '../AnimationData/Spin/%03dspin.png':
  Duration: 00:00:14.40, start: 0.000000, bitrate: N/A
  Stream #0:0: Video: png, rgba(pc), 1920x1440 [SAR 11811:11811 DAR 4:3], 25 fps, 25 tbr, 25 tbn
Stream mapping:
  Stream #0:0 -> #0:0 (png (native) -> h264 (libx264))
Press [q] to stop, [?] for help
[libx264 @ 0xb9bd940] using SAR=1/1
[libx264 @ 0xb9bd940] using cpu capabilities: MMX2 SSE2Fast SSSE3 SSE4.2 AVX FMA3 BMI2 AVX2
[libx264 @ 0xb9bd940] profile High, level 5.1, 4:2:0, 8-bit
[libx264 @ 0xb9bd940] 264 - core 164 r3094 bfc87b7 - H.264/MPEG-4 AVC codec - Copyleft 2003-2022 - http://www.videolan.org/x264.html - options: cabac=1 ref=3 deblock=1:0:0 analyse=0x3:0x113 me=hex subme=7 psy=1 psy_rd=1.00:0.00 mixed_ref=1 me_range=16 chroma_me=1 trellis=1 8x8dct=1 cqm=0 deadzone=21,11 fast_pskip=1 chroma_qp_offset=-2 threads=45 lookahead_threads=7 sliced_threads=0 nr=0 decimate=1 interlaced=0 bluray_compat=0 constrained_intra=0 bframes=3 b_pyramid=2 b_adapt=1 b_bias=0 direct=1 weightb=1 open_gop=0 weightp=2 keyint=250 keyint_min=25 scenecut=40 intra_refresh=0 rc_lookahead=40 rc=crf mbtree=1 crf=23.0 qcomp=0.60 qpmin=0 qpmax=69 qpstep=4 ip_ratio=1.40 aq=1:1.00
Output #0, mp4, to '../AnimationData/Spin/Spin.mp4':
  Metadata:
    encoder         : Lavf59.16.100
  Stream #0:0: Video: h264 (avc1 / 0x31637661), yuv420p(tv, progressive), 1920x1440 [SAR 1:1 DAR 4:3], q=2-31, 72 fps, 18432 tbn
    Metadata:
      encoder         : Lavc59.18.100 libx264
    Side data:
      cpb: bitrate max/min/avg: 0/0/0 buffer size: 0 vbv_delay: N/A
frame=    3 fps=0.0 q=0.0 size=       0kB time=00:00:00.00 bitrate=N/A dup=2 drop=0 speed=   0x    frame=   34 fps=0.0 q=0.0 size=       0kB time=00:00:00.00 bitrate=N/A dup=2 drop=0 speed=   0x    frame=   74 fps= 73 q=0.0 size=       0kB time=00:00:00.00 bitrate=N/A dup=2 drop=0 speed=   0x    frame=  121 fps= 80 q=32.0 size=       0kB time=00:00:00.40 bitrate=   1.0kbits/s dup=2 drop=0 speed=0.266x    frame=  168 fps= 83 q=32.0 size=     256kB time=00:00:01.05 bitrate=1987.0kbits/s dup=2 drop=0 speed=0.523x    frame=  215 fps= 85 q=32.0 size=     512kB time=00:00:01.70 bitrate=2455.3kbits/s dup=2 drop=0 speed=0.677x    frame=  262 fps= 87 q=32.0 size=     512kB time=00:00:02.36 bitrate=1776.5kbits/s dup=2 drop=0 speed=0.78x    frame=  309 fps= 88 q=32.0 size=     768kB time=00:00:03.01 bitrate=2087.6kbits/s dup=2 drop=0 speed=0.854x    frame=  355 fps= 88 q=32.0 size=    1024kB time=00:00:03.65 bitrate=2296.6kbits/s dup=2 drop=0 speed=0.903x    frame=  362 fps= 83 q=-1.0 Lsize=    1570kB time=00:00:04.98 bitrate=2578.9kbits/s dup=2 drop=0 speed=1.15x    
video:1567kB audio:0kB subtitle:0kB other streams:0kB global headers:0kB muxing overhead: 0.148099%
[libx264 @ 0xb9bd940] frame I:2     Avg QP:23.52  size: 31248
[libx264 @ 0xb9bd940] frame P:358   Avg QP:24.62  size:  4303
[libx264 @ 0xb9bd940] frame B:2     Avg QP:16.50  size:   599
[libx264 @ 0xb9bd940] consecutive B-frames: 99.2%  0.0%  0.8%  0.0%
[libx264 @ 0xb9bd940] mb I  I16..4: 29.0% 61.8%  9.1%
[libx264 @ 0xb9bd940] mb P  I16..4:  0.4%  1.2%  0.1%  P16..4:  9.1%  2.6%  0.8%  0.0%  0.0%    skip:85.9%
[libx264 @ 0xb9bd940] mb B  I16..4:  0.1%  0.0%  0.0%  B16..8:  6.7%  0.1%  0.0%  direct: 0.0%  skip:93.1%  L0:84.5% L1:15.2% BI: 0.3%
[libx264 @ 0xb9bd940] 8x8 transform intra:68.7% inter:70.6%
[libx264 @ 0xb9bd940] coded y,uvDC,uvAC intra: 6.0% 3.2% 1.4% inter: 0.8% 1.2% 0.2%
[libx264 @ 0xb9bd940] i16 v,h,dc,p: 63% 24%  9%  4%
[libx264 @ 0xb9bd940] i8 v,h,dc,ddl,ddr,vr,hd,vl,hu: 19%  5% 74%  0%  1%  0%  0%  0%  0%
[libx264 @ 0xb9bd940] i4 v,h,dc,ddl,ddr,vr,hd,vl,hu: 44% 16% 28%  1%  3%  2%  2%  1%  2%
[libx264 @ 0xb9bd940] i8c dc,h,v,p: 93%  3%  4%  1%
[libx264 @ 0xb9bd940] Weighted P-Frames: Y:0.0% UV:0.0%
[libx264 @ 0xb9bd940] ref P L0: 79.4%  4.1% 12.6%  3.9%
[libx264 @ 0xb9bd940] ref B L0: 96.3%  3.7%
[libx264 @ 0xb9bd940] kb/s:2552.72
